<?xml version="1.0" encoding="utf-8"?>
<!-- Generator: Adobe Illustrator 24.0.1, SVG Export Plug-In . SVG Version: 6.00 Build 0)  -->
<svg version="1.1" id="Layer_1" xmlns="http://www.w3.org/2000/svg" xmlns:xlink="http://www.w3.org/1999/xlink" x="0px" y="0px"
	 viewBox="0 0 50 50" style="enable-background:new 0 0 50 50;" xml:space="preserve">
<style type="text/css">
	.st0{fill:#FFFFFF;}
	.st1{fill:#1F2540;}
</style>
<path class="st0" d="M45.2,13.6c-1.1-2.7-2.7-5.1-4.7-7.1C38,4,35.1,2.1,31.7,1.1C28.3,0,24.9-0.3,21.4,0.3
	c-2.7,0.5-5.3,1.4-7.7,2.9c-2.4,1.4-4.4,3.2-6.1,5.5H7.6c-0.5,0.6-0.8,1.2-1.2,1.8c-1,1.6-1.8,3.3-2.3,5.1c-0.5,1.8-0.8,3.6-0.9,5.4
	c-0.1,1.8,0.1,3.7,0.4,5.5c0.4,1.8,1,3.6,1.8,5.2c0.8,1.6,1.8,3.1,3,4.5l12,12.1c1.3,1.3,3.1,2,4.5,1.9c1.5,0.1,3.2-0.5,4.5-1.9
	c0,0,11.7-11.6,12-12.1c1.6-1.9,3.4-5.1,4.1-7.3c0.7-2.2,1.1-4.4,1.1-6.8C46.9,19.1,46.3,16.3,45.2,13.6z M13.1,16.9
	c1.1-2.2,2.7-3.9,4.8-5.2c1.6-1,3.3-1.6,5.2-1.9c1.9-0.3,3.7-0.2,5.4,0.3c1.8,0.5,3.4,1.3,4.9,2.4c1.4,1.2,2.6,2.6,3.5,4.2
	c0.7,1.3,1.2,2.7,1.5,4.4c0.2,1.7,0.1,3.3-0.2,5c-0.4,1.6-1.1,3.1-2,4.6c-0.9,1.2-1.9,2.3-3.1,3.2c-1.2,0.9-2.6,1.6-4,2
	c-1.5,0.5-3,0.7-4.6,0.6c-1.6-0.1-3.1-0.4-4.6-1.1C18.4,34.9,17.1,34,16,33c-1.1-1-2-2.1-2.7-3.4c-0.1-0.2-0.2-0.3-0.2-0.5
	c-0.9-1.6-1.3-3.4-1.4-5.3C11.4,21.4,11.9,19.1,13.1,16.9z"/>
<path class="st1" d="M25,27.7c-1.3,0-2.4-0.5-3.3-1.4c-0.9-0.9-1.3-2-1.3-3.3c0-1.3,0.4-2.4,1.3-3.3c0.9-0.9,2-1.4,3.3-1.4
	c1.3,0,2.4,0.5,3.3,1.4c0.9,0.9,1.4,2,1.4,3.3c0,1.3-0.5,2.4-1.4,3.3C27.3,27.2,26.2,27.7,25,27.7z"/>
</svg>
