<?xml version="1.0" encoding="utf-8"?>
<!-- Generator: Adobe Illustrator 24.0.1, SVG Export Plug-In . SVG Version: 6.00 Build 0)  -->
<svg version="1.1" id="Layer_1" xmlns="http://www.w3.org/2000/svg" xmlns:xlink="http://www.w3.org/1999/xlink" x="0px" y="0px"
	 viewBox="0 0 138.7 25.8" style="enable-background:new 0 0 138.7 25.8;" xml:space="preserve">
<style type="text/css">
	.st0{fill:#1F2540;}
	.st1{fill:#EC195D;}
</style>
<g>
	<g>
		<path class="st0" d="M25.7,13.9c0,0.1,0,0.1,0,0.1c0,0.1,0,0.3,0,0.5c0,0.2-0.1,0.4-0.1,0.7c-0.3,1.5-0.8,2.9-1.5,4.2
			c-0.8,1.3-1.7,2.4-2.8,3.4c-1.1,0.9-2.4,1.7-3.8,2.2c-1.4,0.5-2.9,0.8-4.5,0.8c-1.8,0-3.4-0.3-5-1C6.3,24,5,23.1,3.8,22
			c-1.2-1.2-2.1-2.5-2.8-4.1c-0.7-1.6-1-3.2-1-5c0-1.8,0.3-3.4,1-5c0.7-1.6,1.6-2.9,2.8-4.1C5,2.6,6.3,1.7,7.9,1c1.6-0.7,3.2-1,5-1
			c1.3,0,2.5,0.2,3.7,0.6c1.2,0.4,2.3,0.9,3.3,1.5l0.4,0.3c0.6,0.4,1,0.9,1.1,1.6c0.1,0.7,0,1.3-0.3,1.9c-0.4,0.6-0.9,1-1.6,1.1
			c-0.7,0.2-1.3,0.1-1.9-0.3l-1-0.6c-0.6-0.3-1.2-0.5-1.8-0.7c-0.6-0.2-1.3-0.3-2-0.3c-1.1,0-2.1,0.2-3.1,0.6C8.9,6,8,6.6,7.3,7.3
			C6.6,8,6,8.8,5.6,9.8c-0.4,1-0.6,2-0.6,3.1C5,14,5.2,15,5.6,15.9c0.4,1,1,1.8,1.7,2.5c0.7,0.7,1.6,1.3,2.5,1.7
			c0.9,0.4,2,0.6,3.1,0.6c0.9,0,1.7-0.1,2.4-0.4c0.8-0.3,1.5-0.6,2.1-1.1c0.6-0.5,1.2-1,1.7-1.6c0.5-0.6,0.9-1.3,1.2-2.1h-3.4
			c-0.7,0-1.3-0.2-1.8-0.7c-0.5-0.5-0.7-1.1-0.7-1.8c0-0.7,0.2-1.3,0.7-1.8c0.5-0.5,1.1-0.7,1.8-0.7H23c0.8,0.1,1.4,0.4,1.9,0.9
			c0.5,0.6,0.8,1.2,0.8,2V13.9L25.7,13.9z"/>
		<path class="st0" d="M54,12.9c0,0.7-0.3,1.3-0.8,1.8c-0.5,0.5-1.1,0.7-1.8,0.8H33.7c0.1,0.3,0.3,0.7,0.4,1
			c0.1,0.3,0.3,0.5,0.4,0.8c0.1,0.2,0.3,0.5,0.4,0.7c-0.1-0.2-0.3-0.4-0.4-0.6c-0.1-0.2-0.2-0.4-0.3-0.6c0.4,0.8,1,1.5,1.6,2.1
			c0.7,0.6,1.4,1.1,2.2,1.4c0.9,0.4,1.9,0.6,2.9,0.6h0.2c0.7,0,1.3,0.2,1.7,0.7c0.5,0.5,0.7,1,0.7,1.7c0,0.7-0.2,1.3-0.7,1.8
			c-0.5,0.5-1,0.7-1.7,0.7c-0.2,0-0.3,0-0.5,0c-0.1,0-0.3,0-0.4,0c-1.1-0.1-2.2-0.3-3.3-0.7c-1.1-0.4-2.1-0.9-3-1.5
			c-0.9-0.6-1.8-1.3-2.5-2.1c-0.7-0.8-1.4-1.7-1.9-2.8c-1-2-1.4-4.1-1.3-6.3c0.1-2.2,0.7-4.3,1.9-6.2c0.1-0.2,0.2-0.3,0.3-0.5
			c0.1-0.2,0.2-0.3,0.4-0.5c1-1.3,2.2-2.4,3.6-3.3c1.4-0.8,2.9-1.4,4.5-1.7c2.1-0.3,4.1-0.2,6.1,0.5c2,0.6,3.7,1.7,5.2,3.2
			C51.5,5.1,52.4,6.4,53,8c0.7,1.5,1,3.1,1,4.8V12.9L54,12.9z M37,6.2c-0.8,0.5-1.4,1.1-2,1.9c-0.6,0.7-1,1.5-1.3,2.4h15
			c-0.1-0.4-0.3-0.8-0.6-1.3c-0.5-1-1.2-1.8-2.1-2.5c-0.9-0.7-1.8-1.2-2.9-1.5c-1-0.3-2.1-0.4-3.2-0.2C38.9,5.2,37.9,5.6,37,6.2z"/>
		<path class="st0" d="M109.1,2.5v0.6c-0.1,2-0.7,3.8-1.6,5.5c-0.9,1.7-2.1,3.1-3.7,4.2c1.5,1.1,2.7,2.5,3.7,4.2
			c0.9,1.7,1.5,3.5,1.6,5.5v0.7c0,0.7-0.2,1.3-0.7,1.8c-0.5,0.5-1.1,0.7-1.8,0.7c-0.7,0-1.3-0.2-1.8-0.7c-0.5-0.5-0.7-1.1-0.7-1.8
			v-0.4c-0.1-1-0.3-2-0.7-2.9c-0.4-0.9-1-1.7-1.6-2.4c-0.7-0.7-1.5-1.2-2.4-1.6c-0.9-0.4-1.9-0.6-2.9-0.7c-0.1,0-0.1,0-0.2,0
			c-0.1,0-0.2,0-0.2,0c-1,0-2,0.2-2.9,0.7c-0.9,0.4-1.7,1-2.4,1.6c-0.7,0.7-1.2,1.5-1.7,2.4c-0.4,0.9-0.7,1.9-0.7,2.9v0.4
			c0,0.7-0.2,1.3-0.7,1.8c-0.5,0.5-1.1,0.7-1.8,0.7c-0.7,0-1.3-0.2-1.8-0.7c-0.5-0.5-0.7-1.1-0.7-1.8v-0.7c0.1-2,0.6-3.8,1.6-5.5
			c0.9-1.7,2.2-3.1,3.7-4.2c-1.5-1.1-2.7-2.5-3.7-4.2c-0.9-1.7-1.4-3.5-1.6-5.5V2.5v0c0-0.7,0.2-1.3,0.7-1.8C84.6,0.2,85.2,0,85.9,0
			c0.7,0,1.3,0.2,1.8,0.7c0.5,0.5,0.7,1.1,0.7,1.8v0.3c0,1,0.3,2,0.7,2.9c0.4,0.9,1,1.7,1.7,2.4c0.7,0.7,1.5,1.2,2.4,1.6
			c0.9,0.4,1.9,0.6,2.9,0.6h0.2h0.2c1,0,2-0.2,2.9-0.6c0.9-0.4,1.7-0.9,2.4-1.6c0.7-0.7,1.2-1.5,1.6-2.4c0.4-0.9,0.6-1.9,0.7-2.9
			V2.5c0-0.7,0.2-1.3,0.7-1.8c0.5-0.5,1.1-0.7,1.8-0.7c0.7,0,1.3,0.2,1.8,0.7C108.9,1.2,109.1,1.8,109.1,2.5L109.1,2.5z"/>
		<path class="st0" d="M136.3,0c0.7,0,1.3,0.2,1.8,0.7c0.5,0.5,0.7,1.1,0.7,1.8v2.6c0,0.9-0.1,1.7-0.3,2.5c-0.2,0.8-0.4,1.6-0.8,2.4
			c-0.6,1.5-1.5,2.9-2.7,4.1c-0.6,0.6-1.3,1.1-1.9,1.6c-0.7,0.5-1.4,0.9-2.2,1.2c-0.4,0.2-0.8,0.3-1.3,0.4c-0.4,0.1-0.8,0.2-1.3,0.3
			v5.8c0,0.7-0.2,1.3-0.7,1.7c-0.5,0.5-1.1,0.7-1.8,0.7c-0.7,0-1.2-0.2-1.7-0.7c-0.5-0.5-0.7-1-0.7-1.7v-5.8
			c-0.5-0.1-0.9-0.2-1.3-0.3c-0.4-0.1-0.8-0.3-1.3-0.4c-0.8-0.3-1.5-0.7-2.2-1.2c-0.7-0.5-1.3-1-1.9-1.6c-1.2-1.2-2.1-2.6-2.8-4.1
			c-0.6-1.5-0.9-3.1-1-4.8V2.5c0-0.7,0.2-1.3,0.7-1.8c0.5-0.5,1.1-0.7,1.8-0.7c0.7,0,1.3,0.2,1.7,0.7c0.5,0.5,0.7,1.1,0.7,1.8v2.4
			c0,1.1,0.2,2.1,0.6,3.1c0.4,1,1,1.8,1.7,2.5c0.7,0.7,1.6,1.3,2.5,1.7c1,0.4,2,0.6,3.1,0.6c1.1,0,2.1-0.2,3.1-0.6
			c1-0.4,1.8-1,2.5-1.7c0.7-0.7,1.3-1.6,1.7-2.5c0.4-1,0.6-2,0.6-3.1V2.5c0-0.7,0.2-1.3,0.7-1.8C135,0.3,135.6,0,136.3,0z"/>
		<path class="st1" d="M78.2,7.1c-0.6-1.4-1.4-2.6-2.4-3.7c-1.3-1.3-2.8-2.2-4.5-2.8C69.5,0,67.8-0.1,66,0.2c-1.4,0.3-2.7,0.7-4,1.5
			c-1.2,0.7-2.3,1.7-3.1,2.8h0c-0.2,0.3-0.4,0.6-0.6,0.9c-0.5,0.8-0.9,1.7-1.2,2.6c-0.3,0.9-0.4,1.9-0.5,2.8c0,0.9,0,1.9,0.2,2.8
			c0.2,0.9,0.5,1.8,0.9,2.7c0.4,0.8,0.9,1.6,1.5,2.3l6.2,6.2c0.7,0.7,1.6,1,2.3,1c0.8,0.1,1.7-0.3,2.3-1c0,0,6-6,6.2-6.2
			c0.8-1,1.7-2.6,2.1-3.8c0.4-1.1,0.6-2.3,0.6-3.5C79.1,9.9,78.8,8.4,78.2,7.1z M61.7,8.7c0.6-1.1,1.4-2,2.4-2.7
			c0.8-0.5,1.7-0.8,2.7-1c1-0.1,1.9-0.1,2.8,0.2c0.9,0.2,1.8,0.7,2.5,1.3c0.7,0.6,1.4,1.3,1.8,2.2c0.4,0.7,0.6,1.4,0.8,2.3
			c0.1,0.9,0.1,1.7-0.1,2.6c-0.2,0.8-0.5,1.6-1,2.3c-0.4,0.6-1,1.2-1.6,1.6c-0.6,0.5-1.3,0.8-2.1,1c-0.8,0.3-1.6,0.4-2.4,0.3
			c-0.8,0-1.6-0.2-2.3-0.5c-0.7-0.3-1.4-0.8-2-1.3c-0.6-0.5-1-1.1-1.4-1.8c0-0.1-0.1-0.2-0.1-0.2c-0.4-0.8-0.7-1.7-0.7-2.7
			C60.8,11.1,61.1,9.9,61.7,8.7z"/>
	</g>
	<path class="st0" d="M67.8,14.3c-0.7,0-1.2-0.2-1.7-0.7c-0.5-0.5-0.7-1-0.7-1.7c0-0.7,0.2-1.2,0.7-1.7c0.5-0.5,1-0.7,1.7-0.7
		c0.7,0,1.2,0.2,1.7,0.7c0.5,0.5,0.7,1,0.7,1.7c0,0.7-0.2,1.2-0.7,1.7C69,14.1,68.5,14.3,67.8,14.3z"/>
</g>
</svg>
